<svg width="744" height="839" viewBox="0 0 744 839" fill="none" xmlns="http://www.w3.org/2000/svg">
<path fill-rule="evenodd" clip-rule="evenodd" d="M674.665 -74.1403C670.498 -73.9915 666.206 -73.8383 661.735 -73.7651C602.781 -72.7994 557.812 -38.3543 523.824 9.31908C489.809 57.0323 467.439 117.179 453.813 167.327C442.971 207.224 437.276 248.377 431.992 290.058C431.485 294.061 430.981 298.07 430.477 302.084C425.749 339.714 420.974 377.714 412.637 414.922C401.813 463.232 384.475 515.602 355.444 557.246C326.283 599.075 285.116 630.319 227.078 635.33C194.032 638.184 161.128 633.727 128.932 627.923C120.238 626.355 111.622 624.697 103.066 623.049C79.6592 618.542 56.6928 614.12 33.7544 611.888C-21.2 606.541 -75.132 609.257 -128.863 621.647C-258.746 651.595 -360.187 735.156 -444.041 836.55C-446.416 839.423 -450.673 839.828 -453.548 837.454C-456.423 835.08 -456.828 830.827 -454.452 827.954C-369.621 725.378 -265.816 639.375 -131.9 608.497C-76.6188 595.75 -21.2103 592.981 35.0634 598.457C58.6816 600.755 82.5702 605.355 106.175 609.9C114.605 611.524 122.998 613.14 131.33 614.642C163.274 620.401 194.726 624.578 225.915 621.885C279.045 617.297 316.91 588.91 344.361 549.533C371.94 509.971 388.794 459.56 399.457 411.973C407.645 375.433 412.339 338.083 417.082 300.353C417.583 296.36 418.086 292.363 418.593 288.362C423.875 246.695 429.663 204.695 440.778 163.791C454.6 112.926 477.49 51.0513 512.824 1.48942C548.186 -48.1123 596.657 -86.1961 661.514 -87.2584C665.384 -87.3218 669.346 -87.4623 673.346 -87.6041C682.778 -87.9384 692.423 -88.2803 701.577 -87.6377C714.969 -86.6975 728.331 -83.65 740.992 -75.2165C744.095 -73.1494 744.934 -68.96 742.865 -65.8593C740.796 -62.7586 736.603 -61.9207 733.5 -63.9879C723.411 -70.708 712.562 -73.338 700.631 -74.1757C692.211 -74.7667 683.737 -74.4642 674.665 -74.1403Z" fill="#EAEAEA"/>
</svg>
