<svg width="1760" height="996" viewBox="0 0 1760 996" fill="none" xmlns="http://www.w3.org/2000/svg">
<rect width="1760" height="996" rx="30" fill="#AF85E9"/>
<mask id="mask0_1_628" style="mask-type:alpha" maskUnits="userSpaceOnUse" x="0" y="0" width="1760" height="996">
<rect x="0.5" y="0.5" width="1759" height="995" rx="29.5" fill="#AF85E9" stroke="black"/>
</mask>
<g mask="url(#mask0_1_628)">
<path fill-rule="evenodd" clip-rule="evenodd" d="M1868.66 154.86C1864.5 155.008 1860.21 155.162 1855.73 155.235C1796.78 156.201 1751.81 190.646 1717.82 238.319C1683.81 286.032 1661.44 346.179 1647.81 396.327C1636.97 436.224 1631.28 477.377 1625.99 519.058C1625.48 523.061 1624.98 527.07 1624.48 531.084C1619.75 568.714 1614.97 606.714 1606.64 643.922C1595.81 692.232 1578.48 744.602 1549.44 786.246C1520.28 828.075 1479.12 859.319 1421.08 864.33C1388.03 867.184 1355.13 862.727 1322.93 856.923C1314.24 855.355 1305.62 853.697 1297.07 852.049C1273.66 847.542 1250.69 843.12 1227.75 840.888C1172.8 835.541 1118.87 838.257 1065.14 850.647C935.254 880.595 833.813 964.156 749.959 1065.55C747.584 1068.42 743.327 1068.83 740.452 1066.45C737.577 1064.08 737.172 1059.83 739.548 1056.95C824.379 954.378 928.184 868.375 1062.1 837.497C1117.38 824.75 1172.79 821.981 1229.06 827.457C1252.68 829.755 1276.57 834.355 1300.17 838.9C1308.6 840.524 1317 842.14 1325.33 843.642C1357.27 849.401 1388.73 853.578 1419.91 850.885C1473.04 846.297 1510.91 817.91 1538.36 778.533C1565.94 738.971 1582.79 688.56 1593.46 640.973C1601.64 604.433 1606.34 567.083 1611.08 529.353C1611.58 525.36 1612.09 521.363 1612.59 517.362C1617.87 475.695 1623.66 433.695 1634.78 392.791C1648.6 341.926 1671.49 280.051 1706.82 230.489C1742.19 180.888 1790.66 142.804 1855.51 141.742C1859.38 141.678 1863.35 141.538 1867.35 141.396C1876.78 141.062 1886.42 140.72 1895.58 141.362C1908.97 142.302 1922.33 145.35 1934.99 153.783C1938.1 155.851 1938.93 160.04 1936.87 163.141C1934.8 166.241 1930.6 167.079 1927.5 165.012C1917.41 158.292 1906.56 155.662 1894.63 154.824C1886.21 154.233 1877.74 154.536 1868.66 154.86Z" fill="#EAEAEA"/>
<path fill-rule="evenodd" clip-rule="evenodd" d="M674.665 -74.1403C670.498 -73.9915 666.206 -73.8383 661.735 -73.7651C602.781 -72.7994 557.812 -38.3543 523.824 9.31908C489.809 57.0323 467.439 117.179 453.813 167.327C442.971 207.224 437.276 248.377 431.992 290.058C431.485 294.061 430.981 298.07 430.477 302.084C425.749 339.714 420.974 377.714 412.637 414.922C401.813 463.232 384.475 515.602 355.444 557.246C326.283 599.075 285.116 630.319 227.078 635.33C194.032 638.184 161.128 633.727 128.932 627.923C120.238 626.355 111.622 624.697 103.066 623.049C79.6592 618.542 56.6928 614.12 33.7544 611.888C-21.2 606.541 -75.132 609.257 -128.863 621.647C-258.746 651.595 -360.187 735.156 -444.041 836.55C-446.416 839.423 -450.673 839.828 -453.548 837.454C-456.423 835.08 -456.828 830.827 -454.452 827.954C-369.621 725.378 -265.816 639.375 -131.9 608.497C-76.6188 595.75 -21.2103 592.981 35.0634 598.457C58.6816 600.755 82.5702 605.355 106.175 609.9C114.605 611.524 122.998 613.14 131.33 614.642C163.274 620.401 194.726 624.578 225.915 621.885C279.045 617.297 316.91 588.91 344.361 549.533C371.94 509.971 388.794 459.56 399.457 411.973C407.645 375.433 412.339 338.083 417.082 300.353C417.583 296.36 418.086 292.363 418.593 288.362C423.875 246.695 429.663 204.695 440.778 163.791C454.6 112.926 477.49 51.0513 512.824 1.48942C548.186 -48.1123 596.657 -86.1961 661.514 -87.2584C665.384 -87.3218 669.346 -87.4623 673.346 -87.6041C682.778 -87.9384 692.423 -88.2803 701.577 -87.6377C714.969 -86.6975 728.331 -83.65 740.992 -75.2165C744.095 -73.1494 744.934 -68.96 742.865 -65.8593C740.796 -62.7586 736.603 -61.9207 733.5 -63.9879C723.411 -70.708 712.562 -73.338 700.631 -74.1757C692.211 -74.7667 683.737 -74.4642 674.665 -74.1403Z" fill="#EAEAEA"/>
</g>
</svg>
